<?xml version="1.0" encoding="UTF-8"?>
<svg id="Layer_1" data-name="Layer 1" xmlns="http://www.w3.org/2000/svg" viewBox="0 0 799.31 173.76">
  <defs>
    <style>
      .cls-1 {
        fill: #fff;
      }
    </style>
  </defs>
  <path class="cls-1" d="M177.69,3.78c-9.95,0-19.5,1.76-28.36,4.99-3.61,1.3-7.08,2.86-10.42,4.63-3.35-1.78-6.82-3.33-10.42-4.63-8.85-3.24-18.41-4.99-28.36-4.99C54.3,3.78,17.02,41.06,17.02,86.88c0,45.83,37.28,83.11,83.11,83.11,9.96,0,19.51-1.76,28.37-4.99,3.59-1.3,7.08-2.86,10.41-4.63,3.34,1.78,6.82,3.33,10.41,4.63,8.85,3.24,18.41,4.99,28.37,4.99,45.83,0,83.1-37.28,83.1-83.11,0-45.82-37.27-83.1-83.1-83.1ZM177.69,137.12h-.11c-3.58-.01-7.09-.39-10.46-1.13-11.27-2.4-21.14-8.61-28.21-17.2-2.06-2.5-3.89-5.21-5.44-8.08-3.84-7.1-6.02-15.21-6.02-23.83s2.18-16.73,6.02-23.83c-6.5-9.08-16.62-15.4-28.22-16.84-6.79,12.03-10.66,25.9-10.66,40.67s3.87,28.66,10.66,40.68c1.64,2.93,3.46,5.74,5.45,8.43-3.37.74-6.87,1.12-10.46,1.13h-.11c-27.7,0-50.24-22.53-50.24-50.24s22.54-50.23,50.24-50.23h.1c3.59.01,7.1.39,10.48,1.12,11.26,2.42,21.13,8.63,28.2,17.21,2.05,2.5,3.88,5.21,5.44,8.07,3.84,7.1,6.02,15.21,6.02,23.83s-2.18,16.73-6.02,23.83c6.5,9.08,16.62,15.41,28.22,16.85,6.79-12.03,10.66-25.91,10.66-40.68s-3.87-28.65-10.66-40.67c-1.64-2.93-3.46-5.75-5.46-8.44,3.38-.73,6.88-1.11,10.48-1.12h.1c27.7,0,50.23,22.53,50.23,50.23s-22.53,50.24-50.23,50.24Z"/>
  <g>
    <g>
      <path class="cls-1" d="M325.14,77.46h28.33v13.13h-46.53v-12.2l28.14-40.53h-28.14v-13.13h46.53v12.2l-28.33,40.53Z"/>
      <path class="cls-1" d="M380.02,37.59v13.32h21.48v12.38h-21.48v14.45h24.3v12.85h-40.34V24.74h40.34v12.85h-24.3Z"/>
      <path class="cls-1" d="M448.32,90.59l-13.7-24.86h-3.85v24.86h-16.04V24.74h26.92c5.19,0,9.62.91,13.27,2.72,3.66,1.81,6.39,4.3,8.21,7.46,1.81,3.16,2.72,6.68,2.72,10.55,0,4.38-1.24,8.29-3.71,11.73-2.47,3.44-6.11,5.88-10.93,7.32l15.2,26.08h-18.11ZM430.78,54.38h9.94c2.94,0,5.14-.72,6.61-2.16,1.47-1.44,2.2-3.47,2.2-6.1s-.74-4.47-2.2-5.91c-1.47-1.44-3.67-2.16-6.61-2.16h-9.94v16.32Z"/>
      <path class="cls-1" d="M490.02,86.94c-5.16-2.88-9.26-6.9-12.29-12.06-3.03-5.16-4.55-10.96-4.55-17.4s1.52-12.23,4.55-17.36c3.03-5.13,7.13-9.13,12.29-12.01,5.16-2.88,10.84-4.32,17.03-4.32s11.87,1.44,17.03,4.32c5.16,2.88,9.22,6.88,12.2,12.01,2.97,5.13,4.46,10.91,4.46,17.36s-1.5,12.24-4.5,17.4c-3,5.16-7.07,9.18-12.2,12.06-5.13,2.88-10.79,4.32-16.98,4.32s-11.87-1.44-17.03-4.32ZM519.66,71.36c3.16-3.5,4.74-8.13,4.74-13.88s-1.58-10.46-4.74-13.93c-3.16-3.47-7.36-5.21-12.62-5.21s-9.55,1.72-12.71,5.16c-3.16,3.44-4.74,8.1-4.74,13.98s1.58,10.46,4.74,13.93c3.16,3.47,7.4,5.21,12.71,5.21s9.46-1.75,12.62-5.25Z"/>
      <path class="cls-1" d="M566.71,77.46h28.33v13.13h-46.53v-12.2l28.14-40.53h-28.14v-13.13h46.53v12.2l-28.33,40.53Z"/>
      <path class="cls-1" d="M621.59,37.59v13.32h21.48v12.38h-21.48v14.45h24.3v12.85h-40.34V24.74h40.34v12.85h-24.3Z"/>
      <path class="cls-1" d="M689.89,90.59l-13.7-24.86h-3.85v24.86h-16.04V24.74h26.92c5.19,0,9.62.91,13.27,2.72,3.66,1.81,6.39,4.3,8.21,7.46,1.81,3.16,2.72,6.68,2.72,10.55,0,4.38-1.24,8.29-3.71,11.73-2.47,3.44-6.11,5.88-10.93,7.32l15.2,26.08h-18.11ZM672.35,54.38h9.94c2.94,0,5.14-.72,6.61-2.16,1.47-1.44,2.2-3.47,2.2-6.1s-.74-4.47-2.2-5.91c-1.47-1.44-3.67-2.16-6.61-2.16h-9.94v16.32Z"/>
      <path class="cls-1" d="M731.59,86.94c-5.16-2.88-9.26-6.9-12.29-12.06-3.03-5.16-4.55-10.96-4.55-17.4s1.52-12.23,4.55-17.36c3.03-5.13,7.13-9.13,12.29-12.01,5.16-2.88,10.84-4.32,17.03-4.32s11.87,1.44,17.03,4.32c5.16,2.88,9.22,6.88,12.2,12.01,2.97,5.13,4.46,10.91,4.46,17.36s-1.5,12.24-4.5,17.4c-3,5.16-7.07,9.18-12.2,12.06-5.13,2.88-10.79,4.32-16.98,4.32s-11.87-1.44-17.03-4.32ZM761.23,71.36c3.16-3.5,4.74-8.13,4.74-13.88s-1.58-10.46-4.74-13.93c-3.16-3.47-7.36-5.21-12.62-5.21s-9.55,1.72-12.71,5.16c-3.16,3.44-4.74,8.1-4.74,13.98s1.58,10.46,4.74,13.93c3.16,3.47,7.4,5.21,12.71,5.21s9.46-1.75,12.62-5.25Z"/>
    </g>
    <g>
      <path class="cls-1" d="M334.79,139.33h-19.55l-3.75,10.2h-4.55l15.68-42.42h4.86l15.61,42.42h-4.55l-3.75-10.2ZM333.5,135.77l-8.48-23.24-8.48,23.24h16.97Z"/>
      <path class="cls-1" d="M350.77,116.68c1.84-3.34,4.36-5.94,7.56-7.81,3.2-1.86,6.76-2.8,10.7-2.8,4.8,0,8.9,1.14,12.33,3.41,3.42,2.27,5.91,5.48,7.47,9.62h-5.04c-1.23-2.91-3.1-5.18-5.62-6.82-2.52-1.64-5.56-2.46-9.13-2.46-3.16,0-5.99.74-8.51,2.21-2.52,1.48-4.5,3.6-5.93,6.36-1.44,2.77-2.15,5.97-2.15,9.62s.72,6.84,2.15,9.59c1.43,2.75,3.41,4.86,5.93,6.33,2.52,1.48,5.36,2.21,8.51,2.21,3.57,0,6.61-.81,9.13-2.43,2.52-1.62,4.4-3.86,5.62-6.73h5.04c-1.56,4.1-4.06,7.28-7.5,9.53-3.44,2.25-7.54,3.38-12.29,3.38-3.93,0-7.5-.93-10.7-2.8-3.2-1.86-5.72-4.46-7.56-7.78-1.84-3.32-2.77-7.09-2.77-11.31s.92-8,2.77-11.34Z"/>
      <path class="cls-1" d="M398.17,116.68c1.84-3.34,4.36-5.94,7.56-7.81,3.2-1.86,6.76-2.8,10.7-2.8,4.8,0,8.9,1.14,12.33,3.41,3.42,2.27,5.91,5.48,7.47,9.62h-5.04c-1.23-2.91-3.1-5.18-5.62-6.82-2.52-1.64-5.56-2.46-9.13-2.46-3.16,0-5.99.74-8.51,2.21-2.52,1.48-4.5,3.6-5.93,6.36-1.44,2.77-2.15,5.97-2.15,9.62s.72,6.84,2.15,9.59c1.43,2.75,3.41,4.86,5.93,6.33,2.52,1.48,5.36,2.21,8.51,2.21,3.57,0,6.61-.81,9.13-2.43,2.52-1.62,4.4-3.86,5.62-6.73h5.04c-1.56,4.1-4.06,7.28-7.5,9.53-3.44,2.25-7.54,3.38-12.29,3.38-3.93,0-7.5-.93-10.7-2.8-3.2-1.86-5.72-4.46-7.56-7.78-1.84-3.32-2.77-7.09-2.77-11.31s.92-8,2.77-11.34Z"/>
      <path class="cls-1" d="M453.25,147.17c-3.24-1.86-5.79-4.47-7.65-7.81-1.87-3.34-2.8-7.12-2.8-11.34s.93-8,2.8-11.34c1.86-3.34,4.42-5.94,7.65-7.81,3.24-1.86,6.84-2.8,10.82-2.8s7.64.93,10.88,2.8c3.24,1.87,5.78,4.47,7.62,7.81,1.84,3.34,2.77,7.12,2.77,11.34s-.92,8-2.77,11.34c-1.84,3.34-4.39,5.94-7.62,7.81-3.24,1.87-6.86,2.8-10.88,2.8s-7.58-.93-10.82-2.8ZM472.68,144c2.54-1.48,4.55-3.6,6.02-6.36,1.48-2.77,2.21-5.97,2.21-9.62s-.74-6.84-2.21-9.59c-1.48-2.75-3.48-4.86-6.02-6.33-2.54-1.48-5.41-2.21-8.61-2.21s-6.07.74-8.61,2.21c-2.54,1.48-4.55,3.59-6.02,6.33-1.48,2.75-2.21,5.94-2.21,9.59s.74,6.85,2.21,9.62c1.48,2.77,3.48,4.89,6.02,6.36,2.54,1.48,5.41,2.21,8.61,2.21s6.06-.74,8.61-2.21Z"/>
      <path class="cls-1" d="M497.33,106.57v27.05c0,4.26,1.01,7.42,3.04,9.47,2.03,2.05,4.8,3.07,8.33,3.07s6.28-1.01,8.27-3.04c1.99-2.03,2.98-5.19,2.98-9.5v-27.05h4.3v26.99c0,5.45-1.44,9.55-4.33,12.29-2.89,2.75-6.65,4.12-11.28,4.12s-8.39-1.37-11.28-4.12c-2.89-2.75-4.33-6.84-4.33-12.29v-26.99h4.3Z"/>
      <path class="cls-1" d="M566.24,149.54h-4.3l-23.79-36.15v36.15h-4.3v-42.97h4.3l23.79,36.09v-36.09h4.3v42.97Z"/>
      <path class="cls-1" d="M601.16,106.57v3.57h-11.93v39.41h-4.3v-39.41h-11.99v-3.57h28.22Z"/>
      <path class="cls-1" d="M612.28,106.57v42.97h-4.3v-42.97h4.3Z"/>
      <path class="cls-1" d="M654.45,149.54h-4.3l-23.79-36.15v36.15h-4.3v-42.97h4.3l23.79,36.09v-36.09h4.3v42.97Z"/>
      <path class="cls-1" d="M698.04,119.11c-1.23-2.83-3.1-5.05-5.62-6.67-2.52-1.62-5.48-2.43-8.88-2.43-3.2,0-6.07.74-8.61,2.21-2.54,1.48-4.55,3.58-6.02,6.3-1.48,2.73-2.21,5.89-2.21,9.5s.74,6.78,2.21,9.53c1.48,2.75,3.48,4.86,6.02,6.33,2.54,1.48,5.41,2.21,8.61,2.21,2.99,0,5.69-.65,8.08-1.94s4.32-3.14,5.78-5.53c1.45-2.4,2.28-5.19,2.49-8.39h-18.07v-3.5h22.62v3.14c-.21,3.77-1.23,7.18-3.07,10.24-1.84,3.05-4.31,5.46-7.41,7.22-3.09,1.76-6.57,2.64-10.42,2.64s-7.58-.93-10.82-2.8c-3.24-1.86-5.79-4.47-7.65-7.81-1.87-3.34-2.8-7.12-2.8-11.34s.93-8,2.8-11.34c1.86-3.34,4.42-5.94,7.65-7.81,3.24-1.86,6.84-2.8,10.82-2.8,4.59,0,8.61,1.15,12.05,3.44,3.44,2.3,5.94,5.49,7.5,9.59h-5.04Z"/>
    </g>
  </g>
</svg>